HIERARCHY
ROOT Hips
{
	OFFSET 1.580335 -0.173402 -0.090427
	CHANNELS 6 Xposition Yposition Zposition Zrotation Yrotation Xrotation 
	JOINT Spine
	{
		OFFSET 0.000006 8.340407 -2.713963
		CHANNELS 3 Zrotation Yrotation Xrotation
		JOINT Spine1
		{
			OFFSET 0.000005 11.910018 -2.100078
			CHANNELS 3 Zrotation Yrotation Xrotation
			JOINT Spine2
			{
				OFFSET -0.000011 12.047661 -1.054059
				CHANNELS 3 Zrotation Yrotation Xrotation
				JOINT Spine3
				{
					OFFSET 0.000033 12.093739 0.000047
					CHANNELS 3 Zrotation Yrotation Xrotation
					JOINT Neck
					{
						OFFSET -0.000064 15.549117 1.554893
						CHANNELS 3 Zrotation Yrotation Xrotation
						JOINT Neck1
						{
							OFFSET 0.000012 4.687325 0.410090
							CHANNELS 3 Zrotation Yrotation Xrotation
							JOINT Head
							{
								OFFSET 0.000052 4.633800 0.817054
								CHANNELS 3 Zrotation Yrotation Xrotation
								JOINT HeadEnd
								{
									OFFSET 0.000007 9.727789 -0.000010
									CHANNELS 3 Zrotation Yrotation Xrotation
									End Site
									{
										OFFSET 0.000000 0.000000 0.000000
									}
								}
							}
						}
					}
					JOINT RightShoulder
					{
						OFFSET 0.000028 11.106495 6.072588
						CHANNELS 3 Zrotation Yrotation Xrotation
						JOINT RightArm
						{
							OFFSET -19.427905 0.000080 0.000019
							CHANNELS 3 Zrotation Yrotation Xrotation
							JOINT RightForeArm
							{
								OFFSET -29.350715 0.000015 0.000022
								CHANNELS 3 Zrotation Yrotation Xrotation
								JOINT RightHand
								{
									OFFSET -27.018053 0.000025 0.000101
									CHANNELS 3 Zrotation Yrotation Xrotation
									JOINT RightHandMiddle1
									{
										OFFSET -9.244020 -0.000010 -0.000000
										CHANNELS 3 Zrotation Yrotation Xrotation
										JOINT RightHandMiddle2
										{
											OFFSET -4.870062 -0.000015 -0.000016
											CHANNELS 3 Zrotation Yrotation Xrotation
											JOINT RightHandMiddle3
											{
												OFFSET -3.169084 0.000007 0.000012
												CHANNELS 3 Zrotation Yrotation Xrotation
												JOINT RightHandMiddle4
												{
													OFFSET -1.888353 -0.000004 -0.000008
													CHANNELS 3 Zrotation Yrotation Xrotation
													End Site
													{
														OFFSET 0.000000 0.000000 0.000000
													}
												}
											}
										}
									}
									JOINT RightHandRing
									{
										OFFSET -0.250018 -0.250012 -0.956466
										CHANNELS 3 Zrotation Yrotation Xrotation
										JOINT RightHandRing1
										{
											OFFSET -8.140209 0.000033 -0.734597
											CHANNELS 3 Zrotation Yrotation Xrotation
											JOINT RightHandRing2
											{
												OFFSET -4.501564 -0.000018 -0.406239
												CHANNELS 3 Zrotation Yrotation Xrotation
												JOINT RightHandRing3
												{
													OFFSET -3.068836 -0.000007 -0.276936
													CHANNELS 3 Zrotation Yrotation Xrotation
													JOINT RightHandRing4
													{
														OFFSET -1.869944 -0.000006 -0.168767
														CHANNELS 3 Zrotation Yrotation Xrotation
														End Site
														{
															OFFSET 0.000000 0.000000 0.000000
														}
													}
												}
											}
										}
										JOINT RightHandPinky
										{
											OFFSET -0.163060 -0.249983 -0.975116
											CHANNELS 3 Zrotation Yrotation Xrotation
											JOINT RightHandPinky1
											{
												OFFSET -6.681460 -0.000007 -1.494092
												CHANNELS 3 Zrotation Yrotation Xrotation
												JOINT RightHandPinky2
												{
													OFFSET -3.580951 -0.000005 -0.800779
													CHANNELS 3 Zrotation Yrotation Xrotation
													JOINT RightHandPinky3
													{
														OFFSET -2.276530 -0.000026 -0.509064
														CHANNELS 3 Zrotation Yrotation Xrotation
														JOINT RightHandPinky4
														{
															OFFSET -1.690363 -0.000013 -0.377978
															CHANNELS 3 Zrotation Yrotation Xrotation
															End Site
															{
																OFFSET 0.000000 0.000000 0.000000
															}
														}
													}
												}
											}
										}
									}
									JOINT RightHandIndex
									{
										OFFSET -0.249984 -0.250005 0.956484
										CHANNELS 3 Zrotation Yrotation Xrotation
										JOINT RightHandIndex1
										{
											OFFSET -8.934064 0.000031 0.806257
											CHANNELS 3 Zrotation Yrotation Xrotation
											JOINT RightHandIndex2
											{
												OFFSET -4.694668 -0.000004 0.423675
												CHANNELS 3 Zrotation Yrotation Xrotation
												JOINT RightHandIndex3
												{
													OFFSET -2.811736 0.000016 0.253706
													CHANNELS 3 Zrotation Yrotation Xrotation
													JOINT RightHandIndex4
													{
														OFFSET -1.709903 -0.000013 0.154272
														CHANNELS 3 Zrotation Yrotation Xrotation
														End Site
														{
															OFFSET 0.000000 0.000000 0.000000
														}
													}
												}
											}
										}
										JOINT RightHandThumb1
										{
											OFFSET -0.162999 -0.750007 0.975093
											CHANNELS 3 Zrotation Yrotation Xrotation
											JOINT RightHandThumb2
											{
												OFFSET -5.411690 0.835524 2.244684
												CHANNELS 3 Zrotation Yrotation Xrotation
												JOINT RightHandThumb3
												{
													OFFSET -3.567158 0.550734 1.479635
													CHANNELS 3 Zrotation Yrotation Xrotation
													JOINT RightHandThumb4
													{
														OFFSET -2.150541 0.332035 0.892039
														CHANNELS 3 Zrotation Yrotation Xrotation
														End Site
														{
															OFFSET 0.000000 0.000000 0.000000
														}
													}
												}
											}
										}
									}
								}
							}
						}
					}
					JOINT LeftShoulder
					{
						OFFSET 0.000023 11.106468 6.072652
						CHANNELS 3 Zrotation Yrotation Xrotation
						JOINT LeftArm
						{
							OFFSET 19.427885 -0.000034 -0.000026
							CHANNELS 3 Zrotation Yrotation Xrotation
							JOINT LeftForeArm
							{
								OFFSET 29.350776 -0.000009 0.000020
								CHANNELS 3 Zrotation Yrotation Xrotation
								JOINT LeftHand
								{
									OFFSET 27.018094 -0.000046 0.000031
									CHANNELS 3 Zrotation Yrotation Xrotation
									JOINT LeftHandMiddle1
									{
										OFFSET 9.402655 0.000020 -0.000020
										CHANNELS 3 Zrotation Yrotation Xrotation
										JOINT LeftHandMiddle2
										{
											OFFSET 4.950124 0.000005 -0.000011
											CHANNELS 3 Zrotation Yrotation Xrotation
											JOINT LeftHandMiddle3
											{
												OFFSET 3.211962 0.000002 -0.000015
												CHANNELS 3 Zrotation Yrotation Xrotation
												JOINT LeftHandMiddle4
												{
													OFFSET 1.927627 0.000020 -0.000001
													CHANNELS 3 Zrotation Yrotation Xrotation
													End Site
													{
														OFFSET 0.000000 0.000000 0.000000
													}
												}
											}
										}
									}
									JOINT LeftHandRing
									{
										OFFSET 0.249974 -0.250012 -0.906144
										CHANNELS 3 Zrotation Yrotation Xrotation
										JOINT LeftHandRing1
										{
											OFFSET 8.286058 -0.000007 -0.747814
											CHANNELS 3 Zrotation Yrotation Xrotation
											JOINT LeftHandRing2
											{
												OFFSET 4.585520 0.000013 -0.413793
												CHANNELS 3 Zrotation Yrotation Xrotation
												JOINT LeftHandRing3
												{
													OFFSET 3.124461 0.000017 -0.281967
													CHANNELS 3 Zrotation Yrotation Xrotation
													JOINT LeftHandRing4
													{
														OFFSET 1.908779 -0.000007 -0.172239
														CHANNELS 3 Zrotation Yrotation Xrotation
														End Site
														{
															OFFSET 0.000000 0.000000 0.000000
														}
													}
												}
											}
										}
										JOINT LeftHandPinky
										{
											OFFSET 0.167542 -0.249992 -0.924958
											CHANNELS 3 Zrotation Yrotation Xrotation
											JOINT LeftHandPinky1
											{
												OFFSET 6.823484 0.000019 -1.525920
												CHANNELS 3 Zrotation Yrotation Xrotation
												JOINT LeftHandPinky2
												{
													OFFSET 3.642801 -0.000024 -0.814584
													CHANNELS 3 Zrotation Yrotation Xrotation
													JOINT LeftHandPinky3
													{
														OFFSET 2.333149 0.000001 -0.521729
														CHANNELS 3 Zrotation Yrotation Xrotation
														JOINT LeftHandPinky4
														{
															OFFSET 1.725454 0.000006 -0.385872
															CHANNELS 3 Zrotation Yrotation Xrotation
															End Site
															{
																OFFSET 0.000000 0.000000 0.000000
															}
														}
													}
												}
											}
										}
									}
									JOINT LeftHandIndex
									{
										OFFSET 0.250007 -0.250001 0.906127
										CHANNELS 3 Zrotation Yrotation Xrotation
										JOINT LeftHandIndex1
										{
											OFFSET 9.087984 -0.000020 0.820153
											CHANNELS 3 Zrotation Yrotation Xrotation
											JOINT LeftHandIndex2
											{
												OFFSET 4.776533 -0.000013 0.431049
												CHANNELS 3 Zrotation Yrotation Xrotation
												JOINT LeftHandIndex3
												{
													OFFSET 2.865151 0.000023 0.258582
													CHANNELS 3 Zrotation Yrotation Xrotation
													JOINT LeftHandIndex4
													{
														OFFSET 1.745464 -0.000000 0.157488
														CHANNELS 3 Zrotation Yrotation Xrotation
														End Site
														{
															OFFSET 0.000000 0.000000 0.000000
														}
													}
												}
											}
										}
										JOINT LeftHandThumb1
										{
											OFFSET 0.167563 -0.749998 0.924951
											CHANNELS 3 Zrotation Yrotation Xrotation
											JOINT LeftHandThumb2
											{
												OFFSET 5.551493 0.857115 2.302696
												CHANNELS 3 Zrotation Yrotation Xrotation
												JOINT LeftHandThumb3
												{
													OFFSET 3.625645 0.559726 1.503901
													CHANNELS 3 Zrotation Yrotation Xrotation
													JOINT LeftHandThumb4
													{
														OFFSET 2.195247 0.338907 0.910546
														CHANNELS 3 Zrotation Yrotation Xrotation
														End Site
														{
															OFFSET 0.000000 0.000000 0.000000
														}
													}
												}
											}
										}
									}
								}
							}
						}
					}
				}
			}
		}
	}
	JOINT RightUpLeg
	{
		OFFSET -8.786551 0.000019 -0.000028
		CHANNELS 3 Zrotation Yrotation Xrotation
		JOINT RightLeg
		{
			OFFSET -0.000060 -42.170427 -0.000079
			CHANNELS 3 Zrotation Yrotation Xrotation
			JOINT RightFoot
			{
				OFFSET 0.000081 -45.949166 0.000042
				CHANNELS 3 Zrotation Yrotation Xrotation
				JOINT RightForeFoot
				{
					OFFSET 0.000018 -4.685838 -0.000007
					CHANNELS 3 Zrotation Yrotation Xrotation
					JOINT RightToeBase
					{
						OFFSET -0.000050 0.000018 18.351131
						CHANNELS 3 Zrotation Yrotation Xrotation
						JOINT RightToeBaseEnd
						{
							OFFSET 0.000035 0.000011 6.416914
							CHANNELS 3 Zrotation Yrotation Xrotation
							End Site
							{
								OFFSET 0.000000 0.000000 0.000000
							}
						}
					}
				}
			}
		}
	}
	JOINT LeftUpLeg
	{
		OFFSET 8.786557 -0.000058 -0.000030
		CHANNELS 3 Zrotation Yrotation Xrotation
		JOINT LeftLeg
		{
			OFFSET -0.000008 -42.170424 0.000032
			CHANNELS 3 Zrotation Yrotation Xrotation
			JOINT LeftFoot
			{
				OFFSET -0.000027 -45.949188 0.000020
				CHANNELS 3 Zrotation Yrotation Xrotation
				JOINT LeftForeFoot
				{
					OFFSET 0.000061 -4.685796 0.000041
					CHANNELS 3 Zrotation Yrotation Xrotation
					JOINT LeftToeBase
					{
						OFFSET 0.000034 -0.000060 18.351046
						CHANNELS 3 Zrotation Yrotation Xrotation
						JOINT LeftToeBaseEnd
						{
							OFFSET -0.000044 -0.000013 7.522046
							CHANNELS 3 Zrotation Yrotation Xrotation
							End Site
							{
								OFFSET 0.000000 0.000000 0.000000
							}
						}
					}
				}
			}
		}
	}
}
MOTION
Frames: 4
Frame Time: 0.066667
1.580335 -0.173402 -0.090427 -7.244215 17.462067 2.715119 9.156241 -1.357833 -0.060547 -0.160989 -0.141889 -2.885423 -0.132075 0.167936 -1.796854 1.201625 0.707682 7.258603 3.967459 0.679091 5.832693 -7.655730 5.395588 -0.301805 -4.980329 1.222463 1.573177 0.000157 0.001276 0.000803 8.843898 -12.268696 -1.866454 67.786812 5.835638 16.187609 179.997665 51.803333 164.801071 -20.953056 -7.486073 0.000222 33.832123 -8.233248 -0.001219 42.682922 -0.000184 0.001601 22.469902 -0.002089 0.001593 0.000840 -0.000979 0.001183 -1.591820 -2.052418 -3.871398 37.912540 -4.729204 -3.165678 54.890430 2.205431 -4.234539 18.722788 0.275135 -1.658329 0.001666 0.001711 0.000615 -2.308142 -4.937636 -4.062881 26.617933 4.499229 -5.851426 54.296310 5.378779 -10.464318 38.659554 2.823774 -8.027072 -0.000000 -0.001158 -0.000365 1.235524 7.395707 -0.504065 27.317930 -15.383456 2.508775 34.213001 -0.910692 2.911999 21.690933 -0.360087 1.910179 0.001404 0.000992 0.000348 11.690992 -5.889178 56.336655 0.963859 4.523283 1.184108 0.225825 -0.142694 0.086998 -0.000044 -0.000358 -0.001774 -11.979027 7.244606 -1.517962 -60.893017 -3.516169 18.431057 179.998489 -47.683914 172.096130 9.294458 16.358467 0.032741 -23.393280 4.912728 0.000440 -42.387451 0.000845 0.001074 -21.913620 0.001162 -0.000073 -0.000649 0.000933 0.001186 -0.432453 1.433527 -10.460008 -18.482086 4.508234 -1.630609 -50.505260 -1.906176 -3.994248 -12.137743 -0.120305 -1.087074 0.000111 0.000958 0.000460 -0.119383 1.424930 -5.970519 -5.366358 7.477976 -1.180183 -40.438293 -3.076373 -8.339079 -28.272188 -1.530255 -6.076236 0.000782 -0.002841 0.000220 0.087690 -6.438870 -3.371072 -23.498938 11.368378 2.173868 -31.420778 0.767170 2.701020 -17.601923 0.240045 1.565400 -0.001631 0.001922 -0.001027 -13.551878 6.400243 50.435112 -2.426336 6.446882 0.073927 0.000000 0.000000 0.000000 0.001496 0.000926 -0.001380 5.984378 -6.337467 1.248275 -0.002110 0.002950 1.414650 0.000000 0.000000 -0.000000 -0.000000 0.000000 -0.000000 0.000000 -0.000000 0.000000 0.000000 0.000000 0.000000 14.311317 -7.819541 0.469042 -0.002132 0.002954 0.700837 -0.000000 -0.000000 -0.000000 0.000000 -0.000000 -0.000000 -0.000000 0.000000 0.000000 0.000000 -0.000000 0.000000 
1.521856 -0.184713 -0.041923 -7.269255 17.400211 2.602886 9.068859 -1.383731 -0.292556 -0.176122 -0.143640 -2.912103 -0.134866 0.098300 -1.809511 1.232559 0.700919 7.230327 4.097496 0.396123 6.203954 -7.650919 5.155729 -0.328379 -4.935809 1.199458 1.500103 0.000225 0.000601 0.000944 8.697218 -12.217956 -1.831752 67.353256 7.435016 10.842338 179.998459 51.818359 161.959686 -22.732819 -6.876318 0.002170 35.014030 -8.103835 0.000374 43.366161 -0.000150 0.001276 22.785410 -0.002031 0.001774 0.000750 -0.000582 0.001010 -1.655189 -2.044117 -3.581794 39.130215 -4.383666 -3.251092 55.413784 2.244450 -4.262290 18.967579 0.282564 -1.679105 0.001558 0.001560 0.000349 -2.333678 -5.033043 -4.128930 27.167936 5.076606 -5.979266 55.123886 5.535857 -10.572066 39.125557 2.892388 -8.108732 -0.000265 -0.001234 -0.000137 1.221367 7.405032 -0.528682 28.656519 -15.496079 2.616108 35.190193 -0.958839 2.984894 22.535891 -0.390520 1.980579 0.000977 0.000835 0.000380 11.460579 -5.783111 56.643196 1.599084 3.738907 1.292943 1.471946 -0.968387 0.432046 -0.000180 -0.000420 -0.001695 -11.863938 7.112930 -1.477782 -60.798058 -5.496263 13.757953 179.998398 -47.624611 170.120331 10.073643 15.898939 0.017994 -24.665714 4.685884 0.000850 -43.041523 0.001225 0.000585 -22.326527 0.001114 -0.000198 -0.000562 0.000835 0.001269 -0.410115 1.394111 -10.507048 -19.623819 4.448890 -1.727093 -51.182980 -1.937236 -4.032095 -12.458937 -0.124318 -1.115199 0.000223 0.000888 0.000564 -0.062500 1.402918 -5.872820 -5.978024 7.256559 -1.313787 -40.910084 -3.127078 -8.418767 -28.656878 -1.562019 -6.153598 0.000845 -0.002664 0.000110 0.092716 -6.453431 -3.509145 -24.604412 11.547782 2.266762 -32.146713 0.790094 2.756096 -17.992212 0.248730 1.598946 -0.001619 0.001452 -0.000901 -13.405493 6.620677 50.753719 -2.327512 6.626101 0.011996 0.000000 0.000000 0.000000 0.001537 0.000849 -0.001194 5.952435 -6.444242 1.414721 -0.001971 0.002494 1.528077 0.000000 0.000000 -0.000000 -0.000000 0.000000 -0.000000 0.000000 -0.000000 0.000000 0.000000 0.000000 0.000000 14.389231 -7.734836 0.615880 -0.001638 0.002537 0.847187 -0.000000 -0.000000 -0.000000 0.000000 -0.000000 -0.000000 -0.000000 0.000000 0.000000 0.000000 -0.000000 0.000000 
1.467600 -0.194439 0.005138 -7.291058 17.330948 2.499895 8.995736 -1.406246 -0.489975 -0.188164 -0.145879 -2.934981 -0.134587 0.031857 -1.815480 1.265703 0.693922 7.214329 4.213539 0.144650 6.514039 -7.649081 4.942786 -0.342181 -4.897764 1.179292 1.442182 0.000287 0.000003 0.001075 8.574514 -12.177628 -1.803097 66.959816 8.828654 5.985208 179.999130 51.916019 159.362473 -24.346235 -6.392498 0.003964 35.926331 -8.010405 0.001677 43.903091 -0.000121 0.000987 23.019943 -0.001971 0.001933 0.000673 -0.000272 0.000866 -1.711777 -2.038665 -3.334671 40.087250 -4.106803 -3.317243 55.810577 2.274242 -4.283186 19.159565 0.288449 -1.695382 0.001468 0.001434 0.000123 -2.355699 -5.119579 -4.184502 27.614552 5.552202 -6.083361 55.819588 5.667673 -10.660962 39.508457 2.948635 -8.175398 -0.000482 -0.001292 0.000051 1.209366 7.412613 -0.540655 29.720249 -15.575269 2.700195 35.959080 -0.996476 3.041649 23.231363 -0.415616 2.038187 0.000636 0.000692 0.000423 11.264349 -5.663865 56.872505 2.149489 3.061077 1.388588 2.564400 -1.691285 0.734936 -0.000301 -0.000484 -0.001598 -11.765895 6.996869 -1.442693 -60.720467 -7.219272 9.515411 179.998322 -47.662209 168.251938 10.769109 15.590523 0.005886 -25.605793 4.515982 0.001142 -43.440819 0.001549 0.000171 -22.588749 0.001113 -0.000297 -0.000500 0.000738 0.001341 -0.393060 1.361367 -10.541094 -20.470497 4.400122 -1.798131 -51.581375 -1.952845 -4.053857 -12.664210 -0.126670 -1.133102 0.000305 0.000833 0.000657 -0.021094 1.379315 -5.808185 -6.430231 7.104711 -1.412441 -41.201454 -3.156020 -8.467519 -28.901550 -1.581502 -6.203012 0.000906 -0.002500 0.000019 0.102107 -6.460363 -3.616334 -25.424706 11.667536 2.334620 -32.608978 0.803400 2.790743 -18.250349 0.254427 1.621078 -0.001612 0.001068 -0.000803 -13.275379 6.750603 50.967083 -2.217489 6.745188 -0.046695 0.000000 0.000000 0.000000 0.001577 0.000780 -0.001029 5.919445 -6.534063 1.554788 -0.001794 0.002081 1.637468 0.000000 0.000000 -0.000000 -0.000000 0.000000 -0.000000 -0.000000 -0.000000 0.000000 0.000000 0.000000 0.000000 14.451939 -7.647515 0.746302 -0.001199 0.002165 0.979132 -0.000000 -0.000000 -0.000000 0.000000 -0.000000 -0.000000 -0.000000 0.000000 0.000000 0.000000 -0.000000 0.000000 
1.417548 -0.202578 0.050759 -7.309629 17.254284 2.406142 8.936873 -1.425378 -0.652827 -0.197116 -0.148606 -2.954061 -0.131239 -0.031395 -1.814759 1.301056 0.686690 7.210607 4.315580 -0.075290 6.762662 -7.650215 4.756785 -0.343195 -4.866194 1.161965 1.399419 0.000344 -0.000519 0.001195 8.475760 -12.147744 -1.780486 66.607635 10.014259 1.715881 179.999680 52.096413 157.025085 -25.790579 -6.038589 0.005800 36.571758 -7.954464 0.002676 44.293209 -0.000098 0.000734 23.173561 -0.001908 0.002070 0.000610 -0.000048 0.000748 -1.761586 -2.036064 -3.130034 40.785770 -3.899232 -3.364976 56.080837 2.294914 -4.297424 19.298737 0.292792 -1.707175 0.001396 0.001333 -0.000063 -2.374202 -5.197244 -4.229592 27.957664 5.926488 -6.163743 56.382957 5.774624 -10.731858 39.808147 2.992586 -8.227280 -0.000650 -0.001331 0.000198 1.199521 7.418452 -0.539984 30.509644 -15.625072 2.762021 36.519997 -1.023754 3.082710 23.777140 -0.435401 2.083168 0.000381 0.000565 0.000475 11.102286 -5.531473 57.024899 2.615161 2.490537 1.470899 3.501222 -2.309967 0.994800 -0.000410 -0.000548 -0.001483 -11.684869 6.896437 -1.412694 -60.660606 -8.680722 5.777860 179.998215 -47.796501 166.495605 11.382171 15.434712 -0.003516 -26.217529 4.403744 0.001312 -43.587685 0.001819 -0.000170 -22.700666 0.001160 -0.000370 -0.000464 0.000644 0.001402 -0.381287 1.335296 -10.562145 -21.025120 4.362807 -1.844354 -51.703304 -1.953343 -4.060106 -12.753767 -0.127367 -1.140823 0.000356 0.000792 0.000740 0.004837 1.354124 -5.776613 -6.723977 7.022661 -1.476391 -41.313278 -3.163448 -8.485909 -29.006586 -1.588782 -6.224754 0.000965 -0.002350 -0.000054 0.115864 -6.459666 -3.692637 -25.960974 11.730385 2.378272 -32.809696 0.807246 2.805434 -18.376579 0.257149 1.631866 -0.001610 0.000769 -0.000732 -13.161587 6.790129 51.074772 -2.096292 6.804151 -0.102180 0.000000 0.000000 0.000000 0.001614 0.000720 -0.000886 5.885394 -6.606955 1.668394 -0.001581 0.001710 1.742822 0.000000 0.000000 -0.000000 -0.000000 0.000000 0.000000 -0.000000 -0.000000 0.000000 0.000000 0.000000 0.000000 14.499449 -7.557571 0.860327 -0.000813 0.001837 1.096658 -0.000000 -0.000000 -0.000000 0.000000 -0.000000 -0.000000 -0.000000 0.000000 0.000000 0.000000 -0.000000 0.000000 
